<svg xmlns:xlink="http://www.w3.org/1999/xlink" version="1.1" style="font-family:'lucida grande', 'lucida sans unicode', arial, helvetica, sans-serif;font-size:12px;" xmlns="http://www.w3.org/2000/svg" width="1257" height="550"><desc>Created with Highcharts 4.2.5</desc><defs><clipPath id="highcharts-5"><rect x="0" y="0" width="1134" height="439"></rect></clipPath></defs><rect x="0" y="0" width="1257" height="550" fill="#FFFFFF" class=" highcharts-background"></rect><g class="highcharts-grid"></g><g class="highcharts-grid"><path fill="none" d="M 98 510.5 L 1232 510.5" stroke="#D8D8D8" stroke-width="1" opacity="1"></path><path fill="none" d="M 98 455.5 L 1232 455.5" stroke="#D8D8D8" stroke-width="1" opacity="1"></path><path fill="none" d="M 98 400.5 L 1232 400.5" stroke="#D8D8D8" stroke-width="1" opacity="1"></path><path fill="none" d="M 98 345.5 L 1232 345.5" stroke="#D8D8D8" stroke-width="1" opacity="1"></path><path fill="none" d="M 98 291.5 L 1232 291.5" stroke="#D8D8D8" stroke-width="1" opacity="1"></path><path fill="none" d="M 98 236.5 L 1232 236.5" stroke="#D8D8D8" stroke-width="1" opacity="1"></path><path fill="none" d="M 98 181.5 L 1232 181.5" stroke="#D8D8D8" stroke-width="1" opacity="1"></path><path fill="none" d="M 98 126.5 L 1232 126.5" stroke="#D8D8D8" stroke-width="1" opacity="1"></path><path fill="none" d="M 98 70.5 L 1232 70.5" stroke="#D8D8D8" stroke-width="1" opacity="1"></path></g><g class="highcharts-axis"><path fill="none" d="M 107.5 510 L 107.5 520" stroke="#C0D0E0" stroke-width="1" opacity="1"></path><path fill="none" d="M 172.5 510 L 172.5 520" stroke="#C0D0E0" stroke-width="1" opacity="1"></path><path fill="none" d="M 237.5 510 L 237.5 520" stroke="#C0D0E0" stroke-width="1" opacity="1"></path><path fill="none" d="M 301.5 510 L 301.5 520" stroke="#C0D0E0" stroke-width="1" opacity="1"></path><path fill="none" d="M 367.5 510 L 367.5 520" stroke="#C0D0E0" stroke-width="1" opacity="1"></path><path fill="none" d="M 431.5 510 L 431.5 520" stroke="#C0D0E0" stroke-width="1" opacity="1"></path><path fill="none" d="M 496.5 510 L 496.5 520" stroke="#C0D0E0" stroke-width="1" opacity="1"></path><path fill="none" d="M 561.5 510 L 561.5 520" stroke="#C0D0E0" stroke-width="1" opacity="1"></path><path fill="none" d="M 626.5 510 L 626.5 520" stroke="#C0D0E0" stroke-width="1" opacity="1"></path><path fill="none" d="M 691.5 510 L 691.5 520" stroke="#C0D0E0" stroke-width="1" opacity="1"></path><path fill="none" d="M 756.5 510 L 756.5 520" stroke="#C0D0E0" stroke-width="1" opacity="1"></path><path fill="none" d="M 820.5 510 L 820.5 520" stroke="#C0D0E0" stroke-width="1" opacity="1"></path><path fill="none" d="M 886.5 510 L 886.5 520" stroke="#C0D0E0" stroke-width="1" opacity="1"></path><path fill="none" d="M 950.5 510 L 950.5 520" stroke="#C0D0E0" stroke-width="1" opacity="1"></path><path fill="none" d="M 1015.5 510 L 1015.5 520" stroke="#C0D0E0" stroke-width="1" opacity="1"></path><path fill="none" d="M 1080.5 510 L 1080.5 520" stroke="#C0D0E0" stroke-width="1" opacity="1"></path><path fill="none" d="M 1145.5 510 L 1145.5 520" stroke="#C0D0E0" stroke-width="1" opacity="1"></path><path fill="none" d="M 1210.5 510 L 1210.5 520" stroke="#C0D0E0" stroke-width="1" opacity="1"></path><path fill="none" d="M 98 510.5 L 1232 510.5" stroke="#C0D0E0" stroke-width="1"></path></g><g class="highcharts-axis"><text x="27.75" text-anchor="middle" transform="translate(0,0) rotate(270 27.75 290.5)" class=" highcharts-yaxis-title" style="color:#707070;fill:#707070;" y="290.5">Transactions</text></g><g class="highcharts-series-group"><g class="highcharts-series highcharts-series-0" transform="translate(98,71) scale(1 1)" clip-path="url(#highcharts-5)"><path fill="none" d="M 11.117647058824 438.9989025 L 11.828039842135 439 L 12.538432625446 439 L 13.248825408758 438.984635 L 13.959218192069 438.883665 L 14.669610975381 438.87269 L 15.380003758692 438.85074 L 16.090396542003 438.8803725 L 16.800789325315 438.8683 L 17.511182108626 438.8737875 L 18.221574891938 438.92537 L 18.931967675249 438.7859875 L 19.64236045856 438.8847625 L 20.352753241872 438.866105 L 21.063146025183 438.8584225 L 21.773538808495 438.8606175 L 22.483931591806 438.861715 L 23.194324375117 438.8584225 L 23.904717158429 438.8518375 L 24.61510994174 438.8606175 L 25.325502725052 438.8693975 L 26.035895508363 438.8452525 L 26.746288291674 438.8650075 L 27.456681074986 438.86391 L 28.167073858297 438.8584225 L 28.877466641609 438.8628125 L 29.58785942492 438.8781775 L 30.298252208232 438.89464 L 31.008644991543 438.8869575 L 31.719037774854 438.88586 L 32.429430558166 438.883665 L 33.139823341477 438.8693975 L 33.850216124789 438.8737875 L 34.5606089081 438.8847625 L 35.271001691411 438.8693975 L 35.981394474723 438.87269 L 36.691787258034 438.8562275 L 37.402180041346 438.879275 L 38.112572824657 438.8693975 L 38.822965607968 438.8935425 L 39.53335839128 438.8847625 L 40.243751174591 438.874885 L 40.954143957903 438.866105 L 41.664536741214 438.8628125 L 42.374929524525 438.8825675 L 43.085322307837 438.8759825 L 43.795715091148 438.8584225 L 44.50610787446 438.8913475 L 45.216500657771 438.8913475 L 45.926893441082 438.8650075 L 46.637286224394 438.870495 L 47.347679007705 438.87708 L 48.058071791017 438.8737875 L 48.768464574328 438.8672025 L 49.47885735764 438.8628125 L 50.189250140951 438.9122 L 50.899642924262 438.866105 L 51.610035707574 438.8847625 L 52.320428490885 438.8650075 L 53.030821274197 438.8650075 L 53.741214057508 438.8737875 L 54.451606840819 438.8540325 L 55.161999624131 438.8672025 L 55.872392407442 438.9001275 L 56.582785190754 438.8683 L 57.293177974065 438.8715925 L 58.003570757376 438.8408625 L 58.713963540688 438.8628125 L 59.424356323999 438.89025 L 60.134749107311 438.9023225 L 60.845141890622 438.9923175 L 61.555534673933 438.87708 L 62.265927457245 438.8628125 L 62.976320240556 438.88147 L 63.686713023868 438.870495 L 64.397105807179 438.9023225 L 65.107498590491 438.9571975 L 65.817891373802 438.97366 L 66.528284157113 438.92098 L 67.238676940425 438.9089075 L 67.949069723736 438.9001275 L 68.659462507048 438.923175 L 69.369855290359 438.9198825 L 70.08024807367 438.9111025 L 70.790640856982 438.90781 L 71.501033640293 438.9111025 L 72.211426423605 438.9045175 L 72.921819206916 438.901225 L 73.632211990227 438.94293 L 74.342604773539 438.9023225 L 75.05299755685 438.92098 L 75.763390340162 438.9023225 L 76.473783123473 438.9001275 L 77.184175906784 438.9132975 L 77.894568690096 438.910005 L 78.604961473407 438.91659 L 79.315354256719 438.92098 L 80.02574704003 438.9242725 L 80.736139823341 438.9967075 L 81.446532606653 438.9176875 L 82.156925389964 438.9242725 L 82.867318173276 438.9176875 L 83.577710956587 438.9857325 L 84.288103739899 438.95171 L 84.99849652321 438.98244 L 85.708889306521 438.9747575 L 86.419282089833 438.9835375 L 87.129674873144 438.9001275 L 87.840067656456 438.918785 L 88.550460439767 438.892445 L 89.260853223078 438.9264675 L 89.97124600639 438.9111025 L 90.681638789701 438.962685 L 91.392031573013 438.9813425 L 92.102424356324 438.9835375 L 92.812817139635 438.98244 L 93.523209922947 438.98683 L 94.233602706258 438.9396375 L 94.94399548957 438.9637825 L 95.654388272881 438.9089075 L 96.364781056192 438.8957375 L 97.075173839504 438.92537 L 97.785566622815 438.9308575 L 98.495959406127 438.92098 L 99.206352189438 438.927565 L 99.916744972749 438.9330525 L 100.62713775606 438.9220775 L 101.33753053937 438.9111025 L 102.04792332268 438.9352475 L 102.758316106 438.9111025 L 103.46870888931 438.9132975 L 104.17910167262 438.9615875 L 104.88949445593 438.910005 L 105.59988723924 438.896835 L 106.31028002255 438.90342 L 107.02067280586 438.9045175 L 107.73106558917 438.91659 L 108.44145837249 438.9330525 L 109.1518511558 438.9528075 L 109.86224393911 438.923175 L 110.57263672242 438.9154925 L 111.28302950573 438.9308575 L 111.99342228904 438.93854 L 112.70381507235 438.927565 L 113.41420785567 438.9286625 L 114.12460063898 438.8781775 L 114.83499342229 438.90342 L 115.5453862056 438.9176875 L 116.25577898891 438.9286625 L 116.96617177222 438.92976 L 117.67656455553 438.931955 L 118.38695733885 438.967075 L 119.09735012216 438.9374425 L 119.80774290547 438.9286625 L 120.51813568878 438.91659 L 121.22852847209 438.9286625 L 121.9389212554 438.914395 L 122.64931403871 438.9198825 L 123.35970682203 438.89464 L 124.07009960534 438.9001275 L 124.78049238865 438.9198825 L 125.49088517196 438.9154925 L 126.20127795527 438.89464 L 126.91167073858 438.9067125 L 127.62206352189 438.9176875 L 128.33245630521 438.936345 L 129.04284908852 438.927565 L 129.75324187183 438.9067125 L 130.46363465514 438.94293 L 131.17402743845 438.896835 L 131.88442022176 438.88586 L 132.59481300507 438.8628125 L 133.30520578839 438.88586 L 134.0155985717 438.8715925 L 134.72599135501 438.8211075 L 135.43638413832 438.7530625 L 136.14677692163 438.79367 L 136.85716970494 438.8145225 L 137.56756248825 438.826595 L 138.27795527157 438.813425 L 138.98834805488 438.82001 L 139.69874083819 438.835375 L 140.4091336215 438.85513 L 141.11952640481 438.78928 L 141.82991918812 438.826595 L 142.54031197143 438.835375 L 143.25070475475 438.7903775 L 143.96109753806 438.81562 L 144.67149032137 438.8254975 L 145.38188310468 438.8518375 L 146.09227588799 438.857325 L 146.8026686713 438.84635 L 147.51306145461 438.83318 L 148.22345423793 438.83757 L 148.93384702124 438.77172 L 149.64423980455 438.80684 L 150.35463258786 438.7991575 L 151.06502537117 438.7925725 L 151.77541815448 438.730015 L 152.48581093779 438.725625 L 153.19620372111 438.769525 L 153.90659650442 438.7684275 L 154.61698928773 438.8013525 L 155.32738207104 438.7508675 L 156.03777485435 438.787085 L 156.74816763766 438.73221 L 157.45856042097 438.7991575 L 158.16895320428 438.760745 L 158.8793459876 438.72343 L 159.58973877091 438.835375 L 160.30013155422 438.80684 L 161.01052433753 438.7947675 L 161.72091712084 438.8342775 L 162.43130990415 438.804645 L 163.14170268746 438.804645 L 163.85209547078 438.8364725 L 164.56248825409 438.830985 L 165.2728810374 438.8244 L 165.98327382071 438.85952 L 166.69366660402 438.8606175 L 167.40405938733 438.84196 L 168.11445217064 438.7903775 L 168.82484495396 438.7640375 L 169.53523773727 438.7837925 L 170.24563052058 438.800255 L 170.95602330389 438.7750125 L 171.6664160872 438.7662325 L 172.37680887051 438.8298875 L 173.08720165382 438.8079375 L 173.79759443714 438.8079375 L 174.50798722045 438.77172 L 175.21838000376 438.677335 L 175.92877278707 438.703675 L 176.63916557038 438.747575 L 177.34955835369 438.743185 L 178.059951137 437.5326425 L 178.77034392032 438.734405 L 179.48073670363 438.769525 L 180.19112948694 438.7903775 L 180.90152227025 438.75855 L 181.61191505356 438.7596475 L 182.32230783687 438.8013525 L 183.03270062018 438.7837925 L 183.7430934035 438.8342775 L 184.45348618681 438.8101325 L 185.16387897012 438.813425 L 185.87427175343 438.8233025 L 186.58466453674 438.8386675 L 187.29505732005 438.83757 L 188.00545010336 438.870495 L 188.71584288668 438.7618425 L 189.42623566999 438.7574525 L 190.1366284533 438.7508675 L 190.84702123661 438.712455 L 191.55741401992 438.7157475 L 192.26780680323 438.7091625 L 192.97819958654 438.7805 L 193.68859236986 438.804645 L 194.39898515317 438.7596475 L 195.10937793648 438.79367 L 195.81977071979 438.7684275 L 196.5301635031 438.7815975 L 197.24055628641 438.72782 L 197.95094906972 438.7574525 L 198.66134185304 438.68392 L 199.37173463635 438.77172 L 200.08212741966 438.760745 L 200.79252020297 438.734405 L 201.50291298628 438.734405 L 202.21330576959 438.7508675 L 202.9236985529 438.7640375 L 203.63409133621 438.7223325 L 204.34448411953 438.7003825 L 205.05487690284 438.6894075 L 205.76526968615 438.7333075 L 206.47566246946 438.7706225 L 207.18605525277 438.716845 L 207.89644803608 438.734405 L 208.60684081939 437.0914475 L 209.31723360271 437.0321825 L 210.02762638602 438.492955 L 210.73801916933 438.4655175 L 211.44841195264 438.4896625 L 212.15880473595 438.56978 L 212.86919751926 436.4351425 L 213.57959030257 438.5116125 L 214.28998308589 435.2081375 L 215.0003758692 438.6762375 L 215.71076865251 438.5467325 L 216.42116143582 438.5884375 L 217.13155421913 438.59612 L 217.84194700244 438.6455075 L 218.55233978575 438.558805 L 219.26273256907 438.5533175 L 219.97312535238 438.53466 L 220.68351813569 438.650995 L 221.393910919 438.5862425 L 222.10430370231 438.563195 L 222.81469648562 438.615875 L 223.52508926893 438.6301425 L 224.23548205225 438.589535 L 224.94587483556 438.61807 L 225.65626761887 438.68392 L 226.36666040218 438.55222 L 227.07705318549 438.655385 L 227.7874459688 438.6674575 L 228.49783875211 438.7025775 L 229.20823153543 438.6235575 L 229.91862431874 438.67514 L 230.62901710205 438.52149 L 231.33940988536 438.506125 L 232.04980266867 438.5840475 L 232.76019545198 438.6279475 L 233.47058823529 438.30199 L 234.18098101861 438.233945 L 234.89137380192 438.5050275 L 235.60176658523 438.2986975 L 236.31215936854 437.904695 L 237.02255215185 438.3821075 L 237.73294493516 438.5599025 L 238.44333771847 438.6125825 L 239.15373050179 438.593925 L 239.8641232851 438.580755 L 240.57451606841 438.61807 L 241.28490885172 438.615875 L 241.99530163503 438.6345325 L 242.70569441834 438.4677125 L 243.41608720165 437.94201 L 244.12647998497 438.339305 L 244.83687276828 438.3162575 L 245.54726555159 438.4742975 L 246.2576583349 438.3755225 L 246.96805111821 438.488565 L 247.67844390152 438.6586775 L 248.38883668483 438.6894075 L 249.09922946815 438.6279475 L 249.80962225146 438.5730725 L 250.52001503477 438.453445 L 251.23040781808 438.59173 L 251.94080060139 438.67514 L 252.6511933847 438.5620975 L 253.36158616801 425.7345175 L 254.07197895132 438.523685 L 254.78237173464 425.476605 L 255.49276451795 438.5664875 L 256.20315730126 435.9829725 L 256.91355008457 437.307655 L 257.62394286788 438.4984425 L 258.33433565119 438.5006375 L 259.0447284345 438.48198 L 259.75512121782 438.558805 L 260.46551400113 438.5094175 L 261.17590678444 438.4106425 L 261.88629956775 438.580755 L 262.59669235106 438.38101 L 263.30708513437 438.2504075 L 264.01747791768 438.4260075 L 264.727870701 438.488565 L 265.43826348431 437.974935 L 266.14865626762 438.304185 L 266.85904905093 438.365645 L 267.56944183424 438.286625 L 268.27983461755 438.35906 L 268.99022740086 438.405155 L 269.70062018418 438.348085 L 270.41101296749 438.0638325 L 271.1214057508 437.69178 L 271.83179853411 438.0342 L 272.54219131742 437.6906825 L 273.25258410073 437.614955 L 273.96297688404 437.6050775 L 274.67336966736 437.97713 L 275.38376245067 438.10444 L 276.09415523398 437.9387175 L 276.80454801729 437.8509175 L 277.5149408006 437.8223825 L 278.22533358391 437.9409125 L 278.93572636722 438.01225 L 279.64611915054 437.584225 L 280.35651193385 437.0080375 L 281.06690471716 437.89811 L 281.77729750047 437.992495 L 282.48769028378 438.0594425 L 283.19808306709 438.075905 L 283.9084758504 436.952065 L 284.61886863372 436.9114575 L 285.32926141703 436.829145 L 286.03965420034 436.736955 L 286.75004698365 436.710615 L 287.46043976696 437.136445 L 288.17083255027 436.63818 L 288.88122533358 436.8521925 L 289.5916181169 436.84451 L 290.30201090021 436.87963 L 291.01240368352 435.736035 L 291.72279646683 436.6743975 L 292.43318925014 436.894995 L 293.14358203345 436.223325 L 293.85397481676 437.3636275 L 294.56436760008 435.91383 L 295.27476038339 435.7283525 L 295.9851531667 435.4473925 L 296.69554595001 435.9719975 L 297.40593873332 436.065285 L 298.11633151663 436.4746525 L 298.82672429994 436.565745 L 299.53711708325 435.7217675 L 300.24750986657 435.24655 L 300.95790264988 437.2165625 L 301.66829543319 437.2736325 L 302.3786882165 437.2407075 L 303.08908099981 436.50648 L 303.79947378312 436.978405 L 304.50986656643 437.0804725 L 305.22025934975 436.9377975 L 305.93065213306 436.2782 L 306.64104491637 436.8039025 L 307.35143769968 436.4538 L 308.06183048299 435.0852175 L 308.7722232663 436.90158 L 309.48261604961 436.69525 L 310.19300883293 436.23869 L 310.90340161624 434.006375 L 311.61379439955 435.187285 L 312.32418718286 433.89882 L 313.03457996617 435.4495875 L 313.74497274948 435.2695975 L 314.45536553279 434.7318225 L 315.16575831611 435.0929 L 315.87615109942 435.40898 L 316.58654388273 434.16661 L 317.29693666604 434.620975 L 318.00732944935 434.2203875 L 318.71772223266 433.3687275 L 319.42811501597 433.707855 L 320.13850779929 432.6619375 L 320.8489005826 432.22623 L 321.55929336591 432.9736275 L 322.26968614922 433.8143125 L 322.98007893253 432.1922075 L 323.69047171584 431.1451925 L 324.40086449915 429.3716325 L 325.11125728247 428.23572 L 325.82165006578 426.495085 L 326.53204284909 426.6717825 L 327.2424356324 426.19437 L 327.95282841571 425.169305 L 328.66322119902 426.0747425 L 329.37361398233 425.8025625 L 330.08400676565 426.622395 L 330.79439954896 426.038525 L 331.50479233227 426.780435 L 332.21518511558 427.697945 L 332.92557789889 427.04603 L 333.6359706822 428.1512125 L 334.34636346551 428.624235 L 335.05675624883 428.5792375 L 335.76714903214 426.8693325 L 336.47754181545 429.9884275 L 337.18793459876 430.1574425 L 337.89832738207 429.3474875 L 338.60872016538 429.7601475 L 339.31911294869 430.4164525 L 340.02950573201 430.0169625 L 340.73989851532 429.6218625 L 341.45029129863 429.7403925 L 342.16068408194 430.367065 L 342.87107686525 429.7799025 L 343.58146964856 430.419745 L 344.29186243187 431.477735 L 345.00225521519 430.18488 L 345.7126479985 430.160735 L 346.42304078181 430.97947 L 347.13343356512 431.6193125 L 347.84382634843 429.519795 L 348.55421913174 430.09269 L 349.26461191505 430.893865 L 349.97500469836 429.8391675 L 350.68539748168 430.07952 L 351.39579026499 430.4537675 L 352.1061830483 430.9278875 L 352.81657583161 430.8510625 L 353.52696861492 431.227505 L 354.23736139823 431.33067 L 354.94775418154 430.4318175 L 355.65814696486 431.0102 L 356.36853974817 431.4085925 L 357.07893253148 431.74333 L 357.78932531479 430.5437625 L 358.4997180981 431.8871025 L 359.21011088141 431.9178325 L 359.92050366472 431.951855 L 360.63089644804 431.8497875 L 361.34128923135 432.368905 L 362.05168201466 432.6619375 L 362.76207479797 430.85655 L 363.47246758128 431.52822 L 364.18286036459 432.1614775 L 364.8932531479 432.5060925 L 365.60364593122 432.6399875 L 366.31403871453 432.676205 L 367.02443149784 433.3533625 L 367.73482428115 433.16569 L 368.44521706446 432.41061 L 369.15560984777 432.84961 L 369.86600263108 432.930825 L 370.5763954144 431.868445 L 371.28678819771 432.77059 L 371.99718098102 433.646395 L 372.70757376433 432.895705 L 373.41796654764 433.83297 L 374.12835933095 433.71005 L 374.83875211426 432.5038975 L 375.54914489758 433.1755675 L 376.25953768089 433.3906775 L 376.9699304642 433.63542 L 377.68032324751 432.54121250000003 L 378.39071603082 432.693765 L 379.10110881413 431.7839375 L 379.81150159744 433.1514225 L 380.52189438076 431.7268675 L 381.23228716407 433.0306975 L 381.94267994738 433.41592 L 382.65307273069 431.929905 L 383.363465514 432.85839 L 384.07385829731 433.6123725 L 384.78425108062 433.46421 L 385.49464386394 432.83205 L 386.20503664725 433.102035 L 386.91542943056 433.738585 L 387.62582221387 431.8344225 L 388.33621499718 431.6083375 L 389.04660778049 432.9275325 L 389.7570005638 432.0341675 L 390.46739334712 431.1868975 L 391.17778613043 432.759615 L 391.88817891374 433.2491 L 392.59857169705 432.9472875 L 393.30896448036 432.99009 L 394.01935726367 433.7111475 L 394.72975004698 433.293 L 395.4401428303 432.7804675 L 396.15053561361 432.70035 L 396.86092839692 433.1755675 L 397.57132118023 432.8858275 L 398.28171396354 433.4872575 L 398.99210674685 433.1206925 L 399.70249953016 432.6246225 L 400.41289231347 432.81449 L 401.12328509679 432.0188025 L 401.8336778801 432.096725 L 402.54407066341 431.7685725 L 403.25446344672 431.3800575 L 403.96485623003 431.609435 L 404.67524901334 431.6632125 L 405.38564179665 431.0815375 L 406.09603457997 431.626995 L 406.80642736328 433.2282475 L 407.51682014659 431.5183425 L 408.2272129299 431.60724 L 408.93760571321 432.3107375 L 409.64799849652 432.3941475 L 410.35839127983 431.42725 L 411.06878406315 431.3800575 L 411.77917684646 431.73894 L 412.48956962977 431.5380975 L 413.19996241308 431.0332475 L 413.91035519639 430.63266 L 414.6207479797 430.753385 L 415.33114076301 428.5616775 L 416.04153354633 431.17702 L 416.75192632964 432.48963 L 417.46231911295 432.03307 L 418.17271189626 430.3506025 L 418.88310467957 431.76967 L 419.59349746288 431.8936875 L 420.30389024619 431.5095625 L 421.01428302951 430.55364 L 421.72467581282 432.3963425 L 422.43506859613 431.6324825 L 423.14546137944 431.7180875 L 423.85585416275 432.355735 L 424.56624694606 432.71352 L 425.27663972937 431.21214 L 425.98703251269 431.640165 L 426.697425296 432.6948625 L 427.40781807931 431.75211 L 428.11821086262 431.58529 L 428.82860364593 431.9090525 L 429.53899642924 431.9002725 L 430.24938921255 431.170435 L 430.95978199587 431.126535 L 431.67017477918 432.8331475 L 432.38056756249 430.7259475 L 433.0909603458 431.3427425 L 433.80135312911 432.24818 L 434.51174591242 432.3656125 L 435.22213869573 430.7852125 L 435.93253147905 430.7149725 L 436.64292426236 430.9739825 L 437.35331704567 429.831485 L 438.06370982898 430.1947575 L 438.77410261229 430.472425 L 439.4844953956 431.4876125 L 440.19488817891 430.498765 L 440.90528096223 431.245065 L 441.61567374554 430.165125 L 442.32606652885 427.948175 L 443.03645931216 425.5194075 L 443.74685209547 424.084975 L 444.45724487878 421.1294075 L 445.16763766209 418.2956625 L 445.8780304454 423.41989 L 446.58842322872 423.54281 L 447.29881601203 416.1533425 L 448.00920879534 422.65603 L 448.71960157865 397.15013 L 449.42999436196 407.02653250000003 L 450.14038714527 409.60456 L 450.85077992858 407.1648175 L 451.5611727119 414.5795275 L 452.27156549521 404.8019 L 452.98195827852 416.0062775 L 453.69235106183 418.619425 L 454.40274384514 389.63006 L 455.11313662845 418.9431875 L 455.82352941176 409.396035 L 456.53392219508 395.83752 L 457.24431497839 416.17639 L 457.9547077617 376.4457925 L 458.66510054501 384.8789825 L 459.37549332832 396.16677 L 460.08588611163 402.2611875 L 460.79627889494 410.958875 L 461.50667167826 414.9867 L 462.21706446157 403.2796675 L 462.92745724488 409.0217875 L 463.63785002819 413.09022 L 464.3482428115 411.26398 L 465.05863559481 414.86378 L 465.76902837812 414.896705 L 466.47942116144 415.1875425 L 467.18981394475 402.297405 L 467.90020672806 409.9239325 L 468.61059951137 411.1048425 L 469.32099229468 405.4593025 L 470.03138507799 405.2705325 L 470.7417778613 400.16715750000003 L 471.45217064462 406.1024375 L 472.16256342793 406.1353625 L 472.87295621124 405.35943 L 473.58334899455 402.5772675 L 474.29374177786 397.07111 L 475.00413456117 401.5061075 L 475.71452734448 406.78179 L 476.4249201278 403.8767075 L 477.13531291111 407.57199 L 477.84570569442 402.6540925 L 478.55609847773 406.0980475 L 479.26649126104 384.478395 L 479.97688404435 385.145675 L 480.68727682766 394.1155425 L 481.39766961098 400.563355 L 482.10806239429 394.557835 L 482.8184551776 404.13791249999997 L 483.52884796091 400.0486275 L 484.23924074422 404.63947 L 484.94963352753 401.90011 L 485.66002631084 393.4592375 L 486.37041909416 404.68337 L 487.08081187747 398.45835 L 487.79120466078 390.470745 L 488.50159744409 401.2909975 L 489.2119902274 403.8196375 L 489.92238301071 405.629415 L 490.63277579402 400.427265 L 491.34316857734 408.9822775 L 492.05356136065 404.6339825 L 492.76395414396 401.8770625 L 493.47434692727 412.8279175 L 494.18473971058 404.6712975 L 494.89513249389 404.005115 L 495.6055252772 406.186945 L 496.31591806051 415.7955575 L 497.02631084383 407.6740575 L 497.73670362714 406.603995 L 498.44709641045 399.860955 L 499.15748919376 396.89331500000003 L 499.86788197707 403.6001375 L 500.57827476038 412.4405 L 501.28866754369 409.3883525 L 501.99906032701 402.27326 L 502.70945311032 407.79588 L 503.41984589363 408.62888250000003 L 504.13023867694 399.8774175 L 504.84063146025 402.15912000000003 L 505.55102424356 414.26235 L 506.26141702687 419.9243525 L 506.97180981019 406.15182500000003 L 507.6822025935 411.059845 L 508.39259537681 411.27276 L 509.10298816012 403.658305 L 509.81338094343 397.907405 L 510.52377372674 409.5310275 L 511.23416651005 412.95852 L 511.94455929337 411.7370025 L 512.65495207668 397.5770575 L 513.36534485999 401.3853825 L 514.0757376433 400.4119 L 514.78613042661 393.7336125 L 515.49652320992 404.448505 L 516.20691599323 400.7839525 L 516.91730877655 406.59302 L 517.62770155986 396.142625 L 518.33809434317 397.600105 L 519.04848712648 414.4083175 L 519.75887990979 402.58934 L 520.4692726931 402.9065175 L 521.17966547641 402.960295 L 521.89005825973 399.1157525 L 522.60045104304 394.81465000000003 L 523.31084382635 402.205215 L 524.02123660966 394.19127000000003 L 524.73162939297 385.20494 L 525.44202217628 394.377845 L 526.15241495959 395.94727 L 526.86280774291 408.7529 L 527.57320052622 391.6768975 L 528.28359330953 395.92532 L 528.99398609284 401.43477 L 529.70437887615 396.212865 L 530.41477165946 384.206215 L 531.12516444277 401.1153975 L 531.83555722609 400.159475 L 532.5459500094 382.5961825 L 533.25634279271 387.59749 L 533.96673557602 390.9305975 L 534.67712835933 381.7137925 L 535.38752114264 383.14164 L 536.09791392595 393.30449 L 536.80830670927 394.8815975 L 537.51869949258 387.8488175 L 538.22909227589 380.37155 L 538.9394850592 381.5777025 L 539.64987784251 388.723525 L 540.36027062582 376.71029 L 541.07066340913 377.30733 L 541.78105619245 380.3441125 L 542.49144897576 375.1090375 L 543.20184175907 383.1954175 L 543.91223454238 374.4285875 L 544.62262732569 376.005695 L 545.333020109 375.8882625 L 546.04341289231 383.686 L 546.75380567562 377.981195 L 547.46419845894 374.25189 L 548.17459124225 373.823865 L 548.88498402556 367.48251 L 549.59537680887 369.91017999999997 L 550.30576959218 366.7877925 L 551.01616237549 384.5299775 L 551.7265551588 377.4971975 L 552.43694794212 370.4907575 L 553.14734072543 386.6810775 L 553.85773350874 364.798025 L 554.56812629205 377.34574250000003 L 555.27851907536 373.07976 L 555.98891185867 401.50500999999997 L 556.69930464198 385.5462625 L 557.4096974253 379.9106 L 558.12009020861 375.342805 L 558.83048299192 383.0154275 L 559.54087577523 381.9376825 L 560.25126855854 366.3400125 L 560.96166134185 390.066865 L 561.67205412516 372.85587 L 562.38244690848 363.21982 L 563.09283969179 376.223 L 563.8032324751 369.341675 L 564.51362525841 363.47005 L 565.22401804172 372.71648749999997 L 565.93441082503 380.3748425 L 566.64480360834 366.7877925 L 567.35519639166 381.2660125 L 568.06558917497 386.30244 L 568.77598195828 387.7061425 L 569.48637474159 364.38975500000004 L 570.1967675249 376.9550325 L 570.90716030821 394.01786500000003 L 571.61755309152 385.4474875 L 572.32794587484 376.137395 L 573.03833865815 385.9369725 L 573.74873144146 382.75971 L 574.45912422477 387.0234975 L 575.16951700808 364.4391425 L 575.87990979139 362.9213 L 576.5903025747 369.54251750000003 L 577.30069535802 372.5540575 L 578.01108814133 381.949755 L 578.72148092464 384.0229325 L 579.43187370795 379.7558525 L 580.14226649126 378.521165 L 580.85265927457 395.2327975 L 581.56305205788 378.486045 L 582.2734448412 376.255925 L 582.98383762451 381.501975 L 583.69423040782 381.87732 L 584.40462319113 378.6956675 L 585.11501597444 379.3717275 L 585.82540875775 388.2548925 L 586.53580154106 382.79922 L 587.24619432438 391.476055 L 587.95658710769 393.4197275 L 588.666979891 391.3695975 L 589.37737267431 387.5239575 L 590.08776545762 380.839085 L 590.79815824093 394.404185 L 591.50855102424 388.96717 L 592.21894380755 387.6402925 L 592.92933659087 396.2271325 L 593.63972937418 401.6268325 L 594.35012215749 400.2022775 L 595.0605149408 399.1706275 L 595.77090772411 407.3206625 L 596.48130050742 393.1497425 L 597.19169329073 393.9586 L 597.90208607405 394.7564825 L 598.61247885736 398.680045 L 599.32287164067 395.5774125 L 600.03326442398 397.27305 L 600.74365720729 398.51981 L 601.4540499906 395.49071 L 602.16444277391 392.57136 L 602.87483555723 399.5042675 L 603.58522834054 390.42465 L 604.29562112385 382.0188975 L 605.00601390716 380.641535 L 605.71640669047 390.0460125 L 606.42679947378 381.64465 L 607.13719225709 376.40299 L 607.84758504041 381.8861 L 608.55797782372 388.7224275 L 609.26837060703 383.59381 L 609.97876339034 364.0396525 L 610.68915617365 380.685435 L 611.39954895696 365.9734475 L 612.10994174027 370.10773 L 612.82033452359 382.9342125 L 613.5307273069 380.25302 L 614.24112009021 369.1496125 L 614.95151287352 372.36419 L 615.66190565683 388.978145 L 616.37229844014 383.57295750000003 L 617.08269122345 372.906355 L 617.79308400677 379.4814775 L 618.50347679008 378.674815 L 619.21386957339 384.66058 L 619.9242623567 385.922705 L 620.63465514001 387.67651 L 621.34504792332 366.2456275 L 622.05544070663 374.24311 L 622.76583348995 380.518615 L 623.47622627326 372.836115 L 624.18661905657 375.180375 L 624.89701183988 383.6541725 L 625.60740462319 393.1892525 L 626.3177974065 378.2863 L 627.02819018981 371.27547 L 627.73858297313 386.43523749999997 L 628.44897575644 391.54958750000003 L 629.15936853975 387.42737750000003 L 629.86976132306 379.2422225 L 630.58015410637 382.75532 L 631.29054688968 376.0913 L 632.00093967299 389.4006825 L 632.71133245631 379.0336975 L 633.42172523962 375.189155 L 634.13211802293 379.10723 L 634.84251080624 373.3113325 L 635.55290358955 390.28417 L 636.26329637286 382.7673925 L 636.97368915617 377.01759 L 637.68408193949 393.8060475 L 638.3944747228 392.801835 L 639.10486750611 378.5990875 L 639.81526028942 373.19280249999997 L 640.52565307273 376.2570225 L 641.23604585604 374.785275 L 641.94643863935 361.9829375 L 642.65683142266 382.3744875 L 643.36722420598 358.665195 L 644.07761698929 353.436705 L 644.7880097726 354.881015 L 645.49840255591 373.130245 L 646.20879533922 351.1396375 L 646.91918812253 327.04402500000003 L 647.62958090584 350.24737 L 648.33997368916 357.42941 L 649.05036647247 351.487545 L 649.76075925578 360.7734925 L 650.47115203909 385.031535 L 651.1815448224 364.508285 L 651.89193760571 373.50449249999997 L 652.60233038902 377.695845 L 653.31272317234 369.758725 L 654.02311595565 349.38254 L 654.73350873896 362.7511875 L 655.44390152227 382.4315575 L 656.15429430558 376.58298 L 656.86468708889 385.6889375 L 657.5750798722 386.5647425 L 658.28547265552 376.9901525 L 658.99586543883 393.48009 L 659.70625822214 368.9564525 L 660.41665100545 377.8023025 L 661.12704378876 370.816715 L 661.83743657207 374.9444125 L 662.54782935538 377.03076 L 663.2582221387 378.90529 L 663.96861492201 372.71978 L 664.67900770532 374.9092925 L 665.38940048863 384.97666 L 666.09979327194 360.5057025 L 666.81018605525 369.2791175 L 667.52057883856 378.2303275 L 668.23097162188 372.33126500000003 L 668.94136440519 371.189865 L 669.6517571885 370.9560975 L 670.36214997181 383.686 L 671.07254275512 366.77133000000003 L 671.78293553843 362.4812025 L 672.49332832174 368.6842725 L 673.20372110506 364.784855 L 673.91411388837 370.0715125 L 674.62450667168 354.86565 L 675.33489945499 376.6784625 L 676.0452922383 364.0045325 L 676.75568502161 360.346565 L 677.46607780492 373.4891275 L 678.17647058824 363.82564 L 678.88686337155 360.4991175 L 679.59725615486 360.355345 L 680.30764893817 374.1739675 L 681.01804172148 344.70718999999997 L 681.72843450479 360.3981475 L 682.4388272881 361.0566475 L 683.14922007142 365.702365 L 683.85961285473 355.5691475 L 684.57000563804 363.5633375 L 685.28039842135 374.54382499999997 L 685.99079120466 375.4756025 L 686.70118398797 359.85159250000004 L 687.41157677128 363.1199475 L 688.1219695546 365.048255 L 688.83236233791 362.2880425 L 689.54275512122 363.1023875 L 690.25314790453 378.2720325 L 690.96354068784 368.00053 L 691.67393347115 365.14703 L 692.38432625446 373.578025 L 693.09471903777 370.711355 L 693.80511182109 368.454895 L 694.5155046044 365.60578499999997 L 695.22589738771 384.76155 L 695.93629017102 356.817005 L 696.64668295433 365.23483 L 697.35707573764 376.7882125 L 698.06746852095 375.3878025 L 698.77786130427 359.8186675 L 699.48825408758 353.353295 L 700.19864687089 383.69478 L 700.9090396542 368.5328175 L 701.61943243751 372.151275 L 702.32982522082 377.41708 L 703.04021800413 369.3822825 L 703.75061078745 361.70966 L 704.46100357076 364.7069325 L 705.17139635407 382.296565 L 705.88178913738 361.43748 L 706.59218192069 359.14480249999997 L 707.302574704 378.00424250000003 L 708.01296748731 372.74612 L 708.72336027063 360.9458 L 709.43375305394 357.1341825 L 710.14414583725 379.81402 L 710.85453862056 365.4236 L 711.56493140387 366.641825 L 712.27532418718 378.455315 L 712.98571697049 371.8560475 L 713.69610975381 366.0875875 L 714.40650253712 367.8172475 L 715.11689532043 386.616325 L 715.82728810374 367.15765 L 716.53768088705 371.4126575 L 717.24807367036 374.2903025 L 717.95846645367 367.2816675 L 718.66885923699 365.47628 L 719.3792520203 373.27731 L 720.08964480361 383.6541725 L 720.80003758692 367.919315 L 721.51043037023 370.566485 L 722.22082315354 376.5709075 L 722.93121593685 370.9451225 L 723.64160872017 364.67291 L 724.35200150348 371.0636525 L 725.06239428679 380.430815 L 725.7727870701 362.12890500000003 L 726.48317985341 368.599765 L 727.19357263672 379.5363525 L 727.90396542003 373.2849925 L 728.61435820335 364.6257175 L 729.32475098666 370.48636750000003 L 730.03514376997 378.920655 L 730.74553655328 365.5542025 L 731.45592933659 367.8655375 L 732.1663221199 375.86302 L 732.87671490321 373.6318025 L 733.58710768653 368.274905 L 734.29750046984 362.9619075 L 735.00789325315 381.326375 L 735.71828603646 358.96152 L 736.42867881977 361.37163 L 737.13907160308 369.9014 L 737.84946438639 361.97306000000003 L 738.5598571697 356.6754275 L 739.27024995302 362.506445 L 739.98064273633 373.8973975 L 740.69103551964 356.184845 L 741.40142830295 356.171675 L 742.11182108626 372.9425725 L 742.82221386957 366.1139275 L 743.53260665288 357.435995 L 744.2429994362 364.73876 L 744.95339221951 373.4232775 L 745.66378500282 360.4859475 L 746.37417778613 361.14335 L 747.08457056944 364.88692249999997 L 747.79496335275 360.24998500000004 L 748.50535613606 355.1323425 L 749.21574891938 366.2324575 L 749.92614170269 366.52878250000003 L 750.636534486 340.964715 L 751.34692726931 351.469985 L 752.05732005262 370.6092875 L 752.76771283593 363.792715 L 753.47810561924 349.98836 L 754.18849840256 358.577395 L 754.89889118587 370.7355 L 755.60928396918 352.747475 L 756.31967675249 357.093575 L 757.0300695358 361.703075 L 757.74046231911 356.549215 L 758.45085510242 350.84441000000004 L 759.16124788574 345.9199275 L 759.87164066905 368.819265 L 760.58203345236 349.5636275 L 761.29242623567 357.774025 L 762.00281901898 362.75228500000003 L 762.71321180229 352.9088075 L 763.4236045856 351.698265 L 764.13399736892 349.3968075 L 764.84439015223 361.5856425 L 765.55478293554 341.7615 L 766.26517571885 336.561545 L 766.97556850216 357.18357000000003 L 767.68596128547 346.237105 L 768.39635406878 341.0492225 L 769.1067468521 340.727655 L 769.81713963541 359.7418425 L 770.52753241872 343.146545 L 771.23792520203 329.1215925 L 771.94831798534 356.8729775 L 772.65871076865 345.49190250000004 L 773.36910355196 343.1652025 L 774.07949633528 343.9817425 L 774.78988911859 356.6425025 L 775.5002819019 348.1127325 L 776.21067468521 347.9305475 L 776.92106746852 349.60643 L 777.63146025183 334.49605 L 778.34185303514 332.21764 L 779.05224581846 337.04225 L 779.76263860177 354.10069250000004 L 780.47303138508 340.6782675 L 781.18342416839 344.80267249999997 L 781.8938169517 351.73558 L 782.60420973501 333.9396175 L 783.31460251832 336.15986 L 784.02499530163 337.97293 L 784.73538808495 350.2901725 L 785.44578086826 329.502425 L 786.15617365157 361.42431 L 786.86656643488 352.54334 L 787.57695921819 351.40633 L 788.2873520015 347.06462 L 788.99774478481 359.723185 L 789.70813756813 345.086925 L 790.41853035144 343.3419 L 791.12892313475 330.209215 L 791.83931591806 322.7802375 L 792.54970870137 331.2419625 L 793.26010148468 324.3321025 L 793.97049426799 315.498325 L 794.68088705131 343.4659175 L 795.39127983462 330.468225 L 796.10167261793 334.76054750000003 L 796.81206540124 340.631075 L 797.52245818455 323.2982575 L 798.23285096786 341.0075175 L 798.94324375117 344.2199 L 799.65363653449 352.0856825 L 800.3640293178 336.3848475 L 801.07442210111 340.19427 L 801.78481488442 344.3878175 L 802.49520766773 333.79365 L 803.20560045104 330.6756525 L 803.91599323435 321.139475 L 804.62638601767 345.3228875 L 805.33677880098 330.4583475 L 806.04717158429 333.6345125 L 806.7575643676 337.4362525 L 807.46795715091 332.61274000000003 L 808.17834993422 323.9984625 L 808.88874271753 325.5239875 L 809.59913550085 344.314285 L 810.30952828416 319.216655 L 811.01992106747 332.9694275 L 811.73031385078 335.538675 L 812.44070663409 333.1472225 L 813.1510994174 326.11554 L 813.86149220071 332.8223625 L 814.57188498403 346.2864925 L 815.28227776734 324.598795 L 815.99267055065 326.600635 L 816.70306333396 328.747345 L 817.41345611727 322.302825 L 818.12384890058 335.911825 L 818.83424168389 322.333555 L 819.54463446721 343.01704 L 820.25502725052 323.439835 L 820.96542003383 312.03461500000003 L 821.67581281714 335.66818 L 822.38620560045 328.20847249999997 L 823.09659838376 320.41841750000003 L 823.80699116707 313.7851275 L 824.51738395039 341.44981 L 825.2277767337 314.57423 L 825.93816951701 324.7908575 L 826.64856230032 328.71881 L 827.35895508363 312.64702 L 828.06934786694 314.2614425 L 828.77974065025 317.65162 L 829.49013343357 336.0973025 L 830.20052621688 315.603685 L 830.91091900019 313.808175 L 831.6213117835 333.18344 L 832.33170456681 335.7033 L 833.04209735012 314.43814 L 833.75249013343 320.0694125 L 834.46288291674 340.165735 L 835.17327570006 313.41966 L 835.88366848337 327.90227 L 836.59406126668 336.9050625 L 837.30445404999 331.5382875 L 838.0148468333 320.8179075 L 838.72523961661 328.6013775 L 839.43563239992 342.42439 L 840.14602518324 321.5993275 L 840.85641796655 318.509865 L 841.56681074986 293.1345675 L 842.27720353317 310.6374975 L 842.98759631648 301.3745975 L 843.69798909979 318.60425 L 844.4083818831 341.9371 L 845.11877466642 312.0927825 L 845.82916744973 301.65116750000004 L 846.53956023304 315.18773250000004 L 847.24995301635 304.7987975 L 847.96034579966 292.2126675 L 848.67073858297 301.340575 L 849.38113136628 338.9047075 L 850.0915241496 297.6474875 L 850.80191693291 314.6214225 L 851.51230971622 319.50859 L 852.22270249953 310.46189749999996 L 852.93309528284 273.3685925 L 853.64348806615 286.6549275 L 854.35388084946 327.368885 L 855.06427363278 217.3917025 L 855.77466641609 233.545805 L 856.4850591994 250.61193 L 857.19545198271 245.245155 L 857.90584476602 304.73185 L 858.61623754933 309.44232 L 859.32663033264 291.2293075 L 860.03702311596 303.6047175 L 860.74741589927 316.53875500000004 L 861.45780868258 322.623295 L 862.16820146589 316.8142275 L 862.8785942492 289.52598750000004 L 863.58898703251 292.3301 L 864.29937981582 330.37384 L 865.00977259914 293.3408975 L 865.72016538245 293.58783500000004 L 866.43055816576 324.39905 L 867.14095094907 317.522115 L 867.85134373238 311.959985 L 868.56173651569 320.524875 L 869.272129299 343.9751575 L 869.98252208232 307.1562275 L 870.69291486563 310.774685 L 871.40330764894 320.6949875 L 872.11370043225 310.563965 L 872.82409321556 301.2099725 L 873.53448599887 305.44303 L 874.24487878218 337.659045 L 874.9552715655 284.28542500000003 L 875.66566434881 288.153015 L 876.37605713212 288.17386750000003 L 877.08644991543 308.3525025 L 877.79684269874 297.84064750000005 L 878.50723548205 257.59641999999997 L 879.21762826536 286.09630000000004 L 879.92802104867 256.82268250000004 L 880.63841383199 174.12276500000002 L 881.3488066153 309.4960975 L 882.05919939861 302.1779675 L 882.76959218192 290.87701000000004 L 883.47998496523 295.51285 L 884.19037774854 321.28654 L 884.90077053185 285.9646 L 885.61116331517 289.8662125 L 886.32155609848 293.1642 L 887.03194888179 310.01302 L 887.7423416651 285.88119 L 888.45273444841 307.859725 L 889.16312723172 322.798895 L 889.87352001503 292.20169250000004 L 890.58391279835 266.44227 L 891.29430558166 286.10947 L 892.00469836497 289.1001575 L 892.71509114828 262.2684775 L 893.42548393159 278.52135499999997 L 894.1358767149 298.29062250000004 L 894.84626949821 283.58412250000003 L 895.55666228153 257.22985500000004 L 896.26705506484 268.56703000000005 L 896.97744784815 263.77754000000004 L 897.68784063146 207.2947025 L 898.39823341477 257.677635 L 899.10862619808 291.0734625 L 899.81901898139 269.95207500000004 L 900.52941176471 269.74464750000004 L 901.23980454802 267.7186625 L 901.95019733133 273.341155 L 902.66059011464 253.97576750000002 L 903.37098289795 268.74702 L 904.08137568126 300.09601 L 904.79176846457 274.31354 L 905.50216124789 258.20882500000005 L 906.2125540312 250.666805 L 906.92294681451 250.0291575 L 907.63333959782 244.4384925 L 908.34373238113 262.36396 L 909.05412516444 241.69474250000002 L 909.76451794775 228.1735425 L 910.47491073107 206.93143 L 911.18530351438 206.92704 L 911.89569629769 195.90484750000002 L 912.606089081 194.7722275 L 913.31648186431 203.71026750000001 L 914.02687464762 228.8935025 L 914.73726743093 194.11482500000002 L 915.44766021425 189.6600725 L 916.15805299756 251.43286 L 916.86844578087 255.89639250000002 L 917.57883856418 239.43499 L 918.28923134749 303.3237575 L 918.9996241308 284.18226000000004 L 919.71001691411 233.75433 L 920.42040969743 243.78438250000002 L 921.13080248074 243.23453500000002 L 921.84119526405 241.70132750000002 L 922.55158804736 228.68827000000002 L 923.26198083067 235.8472625 L 923.97237361398 227.47772750000001 L 924.68276639729 213.2058375 L 925.39315918061 208.26160000000002 L 926.10355196392 218.4979825 L 926.81394474723 207.87528 L 927.52433753054 190.5424625 L 928.23473031385 194.672355 L 928.94512309716 253.9340625 L 929.65551588047 184.38219500000002 L 930.36590866378 218.3311625 L 931.0763014471 183.55468000000002 L 931.78669423041 196.9364975 L 932.49708701372 182.2497525 L 933.20747979703 216.310665 L 933.91787258034 231.65261750000002 L 934.62826536365 198.88895000000002 L 935.33865814696 205.49041250000002 L 936.04905093028 191.77824750000002 L 936.75944371359 192.10201 L 937.4698364969 191.93958 L 938.18022928021 208.6567 L 938.89062206352 192.39504250000002 L 939.60101484683 152.97064750000004 L 940.31140763014 196.1704425 L 941.02180041346 177.66659250000004 L 941.73219319677 237.575825 L 942.44258598008 233.08375750000002 L 943.15297876339 226.223285 L 943.8633715467 284.12519 L 944.57376433001 222.0494925 L 945.28415711332 211.84713250000001 L 945.99454989664 231.7228575 L 946.70494267995 231.32227 L 947.41533546326 232.8049925 L 948.12572824657 248.4641225 L 948.83612102988 261.769115 L 949.54651381319 228.45450250000002 L 950.2569065965 209.64884 L 950.96729937982 223.17552750000002 L 951.67769216313 218.42554750000002 L 952.38808494644 199.10296250000002 L 953.09847772975 202.5535025 L 953.80887051306 239.625955 L 954.51926329637 175.38049999999998 L 955.22965607968 186.2666025 L 955.940048863 227.5984525 L 956.65044164631 216.02641250000002 L 957.36083442962 201.08395000000002 L 958.07122721293 207.45384 L 958.78161999624 237.9873875 L 959.49201277955 163.80846000000003 L 960.20240556286 166.86609500000003 L 960.91279834618 202.25608 L 961.62319112949 193.39596250000002 L 962.3335839128 182.5219325 L 963.04397669611 183.02788 L 963.75436947942 235.345705 L 964.46476226273 169.32120250000003 L 965.17515504604 188.3211225 L 965.88554782936 207.1202 L 966.59594061267 175.8096225 L 967.30633339598 180.99531000000002 L 968.01672617929 209.18789 L 968.7271189626 236.67807000000002 L 969.43751174591 168.44759249999998 L 970.14790452922 197.4479325 L 970.85829731254 227.12323500000002 L 971.56869009585 207.0225225 L 972.27908287916 181.76246250000003 L 972.98947566247 181.45077250000003 L 973.69986844578 229.89552 L 974.41026122909 166.18784 L 975.1206540124 179.60258250000004 L 975.83104679571 205.0579975 L 976.54143957903 163.138985 L 977.25183236234 150.89527500000003 L 977.96222514565 160.50718 L 978.67261792896 199.417945 L 979.38301071227 166.64001000000002 L 980.09340349558 174.17325 L 980.80379627889 207.429695 L 981.51418906221 200.8106725 L 982.22458184552 193.03708 L 982.93497462883 208.0761225 L 983.64536741214 244.6031175 L 984.35576019545 203.08249750000002 L 985.06615297876 201.04883 L 985.77654576207 235.5180125 L 986.48693854539 199.6473225 L 987.1973313287 199.6429325 L 987.90772411201 201.85110250000002 L 988.61811689532 251.3132325 L 989.32850967863 195.19476500000002 L 990.03890246194 200.17741500000002 L 990.74929524525 224.11389 L 991.45968802857 175.01503250000002 L 992.17008081188 180.4257075 L 992.88047359519 185.02313500000002 L 993.5908663785 228.001235 L 994.30125916181 162.15343000000001 L 995.01165194512 184.5610875 L 995.72204472843 223.2852775 L 996.43243751175 179.67062750000002 L 997.14283029506 169.4748525 L 997.85322307837 183.31213250000002 L 998.56361586168 218.86674250000002 L 999.27400864499 157.5494175 L 999.9844014283 176.10375249999998 L 1000.6947942116 208.13868000000002 L 1001.4051869949 186.7934025 L 1002.1155797782 177.84329000000002 L 1002.8259725615 190.1232175 L 1003.5363653449 247.4983225 L 1004.2467581282 159.701615 L 1004.9571509115 177.5678175 L 1005.6675436948 239.03111 L 1006.3779364781 189.1179075 L 1007.0883292614 163.7371225 L 1007.7987220447 195.251835 L 1008.509114828 241.0208775 L 1009.2195076114 174.26653750000003 L 1009.9299003947 182.74692 L 1010.640293178 202.45692250000002 L 1011.3506859613 193.66485 L 1012.0610787446 176.46044 L 1012.7714715279 194.0522675 L 1013.4818643112 222.46544500000002 L 1014.1922570945 172.29872 L 1014.9026498778 172.60382500000003 L 1015.6130426612 204.211825 L 1016.3234354445 152.75773250000003 L 1017.0338282278 146.17492750000002 L 1017.7442210111 144.4101475 L 1018.4546137944 207.92357 L 1019.1650065777 149.7374125 L 1019.875399361 186.9009575 L 1020.5857921443 208.03332 L 1021.2961849276 178.63788 L 1022.006577711 218.3750625 L 1022.7169704943 147.77288750000002 L 1023.4273632776 228.743145 L 1024.1377560609 178.859575 L 1024.8481488442 80.78917000000001 L 1025.5585416275 186.9163225 L 1026.2689344108 173.648645 L 1026.9793271941 144.411245 L 1027.6897199774 166.7728075 L 1028.4001127608 188.30905 L 1029.1105055441 114.07415000000003 L 1029.8208983274 141.167035 L 1030.5312911107 187.797615 L 1031.241683894 142.119665 L 1031.9520766773 119.42336499999999 L 1032.6624694606 136.17231250000003 L 1033.3728622439 168.42564250000004 L 1034.0832550273 125.51558750000004 L 1034.7936478106 73.02106500000002 L 1035.5040405939 132.38703500000003 L 1036.2144333772 111.36332500000003 L 1036.9248261605 117.81223499999999 L 1037.6352189438 89.70635750000002 L 1038.3456117271 169.39912500000003 L 1039.0560045104 88.06120500000003 L 1039.7663972937 128.72467750000004 L 1040.4767900771 164.3605025 L 1041.1871828604 144.14345500000002 L 1041.8975756437 124.75502 L 1042.607968427 132.40130249999999 L 1043.3183612103 180.22157250000004 L 1044.0287539936 113.6208825 L 1044.7391467769 93.67821000000004 L 1045.4495395602 174.70005000000003 L 1046.1599323435 170.206885 L 1046.8703251269 103.830085 L 1047.5807179102 124.21724499999999 L 1048.2911106935 240.899055 L 1049.0015034768 107.92376000000002 L 1049.7118962601 122.37015250000002 L 1050.4222890434 126.52089749999999 L 1051.1326818267 142.73316750000004 L 1051.84307461 106.393845 L 1052.5534673933 137.0239725 L 1053.2638601767 179.99109750000002 L 1053.97425296 117.76504249999999 L 1054.6846457433 109.08601250000004 L 1055.3950385266 149.740705 L 1056.1054313099 179.23053 L 1056.8158240932 103.20780250000001 L 1057.5262168765 149.99313 L 1058.2366096598 173.8143675 L 1058.9470024431 101.31790749999999 L 1059.6573952265 154.13399750000002 L 1060.3677880098 124.75721500000003 L 1061.0781807931 186.5453675 L 1061.7885735764 100.62319000000002 L 1062.4989663597 104.85954000000004 L 1063.209359143 177.595255 L 1063.9197519263 93.19531 L 1064.6301447096 125.85142250000001 L 1065.340537493 122.75647250000003 L 1066.0509302763 128.70602000000002 L 1066.7613230596 127.28366 L 1067.4717158429 54.05077750000004 L 1068.1821086262 147.9397075 L 1068.8925014095 81.858135 L 1069.6028941928 77.45277000000004 L 1070.3132869761 143.90968750000002 L 1071.0236797594 123.21522750000003 L 1071.7340725428 112.92397 L 1072.4444653261 100.44100500000002 L 1073.1548581094 196.33177500000002 L 1073.8652508927 98.34148750000003 L 1074.575643676 80.08018500000003 L 1075.2860364593 149.775825 L 1075.9964292426 134.9562825 L 1076.7068220259 87.01748250000003 L 1077.4172148092 121.25070249999999 L 1078.1276075926 195.44828750000002 L 1078.8380003759 116.33390250000002 L 1079.5483931592 122.05517000000003 L 1080.2587859425 158.1815775 L 1080.9691787258 122.76525250000003 L 1081.6795715091 91.58088750000002 L 1082.3899642924 114.72935749999999 L 1083.1003570757 177.481115 L 1083.810749859 101.08743250000003 L 1084.5211426424 188.0247975 L 1085.2315354257 140.50634000000002 L 1085.941928209 169.91056000000003 L 1086.6523209923 98.66086000000001 L 1087.3627137756 76.436485 L 1088.0731065589 170.06969750000002 L 1088.7834993422 81.8877675 L 1089.4938921255 112.07231000000002 L 1090.2042849089 64.4023975 L 1090.9146776922 115.47236500000002 L 1091.6250704755 115.07397250000002 L 1092.3354632588 145.75568250000003 L 1093.0458560421 92.17792750000001 L 1093.7562488254 73.66529750000001 L 1094.4666416087 115.51955750000002 L 1095.177034392 77.63056499999999 L 1095.8874271753 77.67117250000001 L 1096.5978199587 90.5141175 L 1097.308212742 88.34655500000002 L 1098.0186055253 81.1524425 L 1098.7289983086 35.43827500000003 L 1099.4393910919 54.749885000000006 L 1100.1497838752 74.72438500000004 L 1100.8601766585 86.002295 L 1101.5705694418 86.006685 L 1102.2809622251 140.9859475 L 1102.9913550085 147.01671 L 1103.7017477918 112.58594 L 1104.4121405751 101.65374250000002 L 1105.1225333584 159.14518250000003 L 1105.8329261417 143.664945 L 1106.543318925 123.31071000000003 L 1107.2537117083 142.7441425 L 1107.9641044916 209.2284975 L 1108.6744972749 143.29179500000004 L 1109.3848900583 143.0207125 L 1110.0952828416 189.72811750000002 L 1110.8056756249 151.55816500000003 L 1111.5160684082 131.90742750000004 L 1112.2264611915 145.57240000000002 L 1112.9368539748 223.2984475 L 1113.6472467581 158.60740750000002 L 1114.3576395414 191.946165 L 1115.0680323248 196.6335875 L 1115.7784251081 162.73510500000003 L 1116.4888178914 156.791045 L 1117.1992106747 188.87645750000001 L 1117.909603458 216.02641250000002 L 1118.6199962413 153.0189375 L 1119.3303890246 186.35659750000002 L 1120.0407818079 193.864595 L 1120.7511745912 175.52098 L 1121.4615673746 177.95633250000003 L 1122.1719601579 167.6903175 L 1122.8823529412 236.90086250000002" stroke="#039bd3" stroke-width="2" stroke-linejoin="round" stroke-linecap="round"></path></g><g class="highcharts-markers highcharts-series-0" transform="translate(98,71) scale(1 1)" clip-path="none"></g></g><text x="629" text-anchor="middle" class="highcharts-title" style="color:#333333;font-size:18px;fill:#333333;width:1193px;" y="24"><tspan>Confirmed Transactions Per Day</tspan></text><text x="629" text-anchor="middle" class="highcharts-subtitle" style="color:#555555;fill:#555555;width:1193px;" y="52"><tspan>source: blockchain.info</tspan></text><g class="highcharts-legend"><g><g></g></g></g><g class="highcharts-axis-labels highcharts-xaxis-labels"><text x="108.48125352377373" style="color:#606060;cursor:default;font-size:11px;fill:#606060;width:62px;text-overflow:clip;" text-anchor="middle" transform="translate(0,0)" y="529" opacity="1"><tspan>Jan '09</tspan></text><text x="172.75700056380379" style="color:#606060;cursor:default;font-size:11px;fill:#606060;width:62px;text-overflow:clip;" text-anchor="middle" transform="translate(0,0)" y="529" opacity="1"><tspan>Jul '09</tspan></text><text x="238.12793647810562" style="color:#606060;cursor:default;font-size:11px;fill:#606060;width:62px;text-overflow:clip;" text-anchor="middle" transform="translate(0,0)" y="529" opacity="1"><tspan>Jan '10</tspan></text><text x="302.40368351813567" style="color:#606060;cursor:default;font-size:11px;fill:#606060;width:62px;text-overflow:clip;" text-anchor="middle" transform="translate(0,0)" y="529" opacity="1"><tspan>Jul '10</tspan></text><text x="367.7746194324375" style="color:#606060;cursor:default;font-size:11px;fill:#606060;width:62px;text-overflow:clip;" text-anchor="middle" transform="translate(0,0)" y="529" opacity="1"><tspan>Jan '11</tspan></text><text x="432.05036647246754" style="color:#606060;cursor:default;font-size:11px;fill:#606060;width:62px;text-overflow:clip;" text-anchor="middle" transform="translate(0,0)" y="529" opacity="1"><tspan>Jul '11</tspan></text><text x="497.42130238676936" style="color:#606060;cursor:default;font-size:11px;fill:#606060;width:62px;text-overflow:clip;" text-anchor="middle" transform="translate(0,0)" y="529" opacity="1"><tspan>Jan '12</tspan></text><text x="562.0522458184552" style="color:#606060;cursor:default;font-size:11px;fill:#606060;width:62px;text-overflow:clip;" text-anchor="middle" transform="translate(0,0)" y="529" opacity="1"><tspan>Jul '12</tspan></text><text x="627.4231817327569" style="color:#606060;cursor:default;font-size:11px;fill:#606060;width:62px;text-overflow:clip;" text-anchor="middle" transform="translate(0,0)" y="529" opacity="1"><tspan>Jan '13</tspan></text><text x="691.698928772787" style="color:#606060;cursor:default;font-size:11px;fill:#606060;width:62px;text-overflow:clip;" text-anchor="middle" transform="translate(0,0)" y="529" opacity="1"><tspan>Jul '13</tspan></text><text x="757.0698646870889" style="color:#606060;cursor:default;font-size:11px;fill:#606060;width:62px;text-overflow:clip;" text-anchor="middle" transform="translate(0,0)" y="529" opacity="1"><tspan>Jan '14</tspan></text><text x="821.3456117271189" style="color:#606060;cursor:default;font-size:11px;fill:#606060;width:62px;text-overflow:clip;" text-anchor="middle" transform="translate(0,0)" y="529" opacity="1"><tspan>Jul '14</tspan></text><text x="886.7165476414208" style="color:#606060;cursor:default;font-size:11px;fill:#606060;width:62px;text-overflow:clip;" text-anchor="middle" transform="translate(0,0)" y="529" opacity="1"><tspan>Jan '15</tspan></text><text x="950.9922946814509" style="color:#606060;cursor:default;font-size:11px;fill:#606060;width:62px;text-overflow:clip;" text-anchor="middle" transform="translate(0,0)" y="529" opacity="1"><tspan>Jul '15</tspan></text><text x="1016.3632305957526" style="color:#606060;cursor:default;font-size:11px;fill:#606060;width:62px;text-overflow:clip;" text-anchor="middle" transform="translate(0,0)" y="529" opacity="1"><tspan>Jan '16</tspan></text><text x="1080.9941740274385" style="color:#606060;cursor:default;font-size:11px;fill:#606060;width:62px;text-overflow:clip;" text-anchor="middle" transform="translate(0,0)" y="529" opacity="1"><tspan>Jul '16</tspan></text><text x="1146.3651099417402" style="color:#606060;cursor:default;font-size:11px;fill:#606060;width:62px;text-overflow:clip;" text-anchor="middle" transform="translate(0,0)" y="529" opacity="1"><tspan>Jan '17</tspan></text><text x="1210.6408569817702" style="color:#606060;cursor:default;font-size:11px;fill:#606060;width:62px;text-overflow:clip;" text-anchor="middle" transform="translate(0,0)" y="529" opacity="1"><tspan>Jul '17</tspan></text></g><g class="highcharts-axis-labels highcharts-yaxis-labels"><text x="0" style="color:#606060;cursor:default;font-size:11px;fill:#606060;width:405px;text-overflow:clip;" text-anchor="end" transform="translate(0,0)" y="-9999">0.0000</text><text x="83" style="color:#606060;cursor:default;font-size:11px;fill:#606060;width:405px;text-overflow:clip;" text-anchor="end" transform="translate(0,0)" y="458" opacity="1">50,000</text><text x="83" style="color:#606060;cursor:default;font-size:11px;fill:#606060;width:405px;text-overflow:clip;" text-anchor="end" transform="translate(0,0)" y="403" opacity="1">100,000</text><text x="83" style="color:#606060;cursor:default;font-size:11px;fill:#606060;width:405px;text-overflow:clip;" text-anchor="end" transform="translate(0,0)" y="348" opacity="1">150,000</text><text x="83" style="color:#606060;cursor:default;font-size:11px;fill:#606060;width:405px;text-overflow:clip;" text-anchor="end" transform="translate(0,0)" y="293" opacity="1">200,000</text><text x="83" style="color:#606060;cursor:default;font-size:11px;fill:#606060;width:405px;text-overflow:clip;" text-anchor="end" transform="translate(0,0)" y="238" opacity="1">250,000</text><text x="83" style="color:#606060;cursor:default;font-size:11px;fill:#606060;width:405px;text-overflow:clip;" text-anchor="end" transform="translate(0,0)" y="183" opacity="1">300,000</text><text x="83" style="color:#606060;cursor:default;font-size:11px;fill:#606060;width:405px;text-overflow:clip;" text-anchor="end" transform="translate(0,0)" y="128" opacity="1">350,000</text><text x="83" style="color:#606060;cursor:default;font-size:11px;fill:#606060;width:405px;text-overflow:clip;" text-anchor="end" transform="translate(0,0)" y="74" opacity="1">400,000</text></g><g class="highcharts-tooltip" style="cursor:default;padding:0;pointer-events:none;white-space:nowrap;" transform="translate(0,-9999)"><path fill="none" d="M 3.5 0.5 L 13.5 0.5 C 16.5 0.5 16.5 0.5 16.5 3.5 L 16.5 13.5 C 16.5 16.5 16.5 16.5 13.5 16.5 L 3.5 16.5 C 0.5 16.5 0.5 16.5 0.5 13.5 L 0.5 3.5 C 0.5 0.5 0.5 0.5 3.5 0.5"  stroke="black" stroke-opacity="0.049999999999999996" stroke-width="5" transform="translate(1, 1)"></path><path fill="none" d="M 3.5 0.5 L 13.5 0.5 C 16.5 0.5 16.5 0.5 16.5 3.5 L 16.5 13.5 C 16.5 16.5 16.5 16.5 13.5 16.5 L 3.5 16.5 C 0.5 16.5 0.5 16.5 0.5 13.5 L 0.5 3.5 C 0.5 0.5 0.5 0.5 3.5 0.5"  stroke="black" stroke-opacity="0.09999999999999999" stroke-width="3" transform="translate(1, 1)"></path><path fill="none" d="M 3.5 0.5 L 13.5 0.5 C 16.5 0.5 16.5 0.5 16.5 3.5 L 16.5 13.5 C 16.5 16.5 16.5 16.5 13.5 16.5 L 3.5 16.5 C 0.5 16.5 0.5 16.5 0.5 13.5 L 0.5 3.5 C 0.5 0.5 0.5 0.5 3.5 0.5"  stroke="black" stroke-opacity="0.15" stroke-width="1" transform="translate(1, 1)"></path><path fill="rgb(249, 249, 249)" fill-opacity=" .85" d="M 3.5 0.5 L 13.5 0.5 C 16.5 0.5 16.5 0.5 16.5 3.5 L 16.5 13.5 C 16.5 16.5 16.5 16.5 13.5 16.5 L 3.5 16.5 C 0.5 16.5 0.5 16.5 0.5 13.5 L 0.5 3.5 C 0.5 0.5 0.5 0.5 3.5 0.5"></path><text x="8" style="font-size:12px;color:#333333;fill:#333333;" y="20"></text></g></svg>